# xmcd CD database file
#
# Track frame offsets:
#	150
#	16263
#	29892
#	43305
#	57866
#	73106
#	92533
#	106181
#	121494
#	136598
#	150183
#	166072
#	184502
#	198354
#
# Disc length: 2845 seconds
#
# Revision: 0
# Processed by: cddbd v1.5.2PL0 Copyright (c) Steve Scherf et al.
# Submitted via: CDex 1.50
#
DISCID=af0b1b0e
DTITLE=Various Artist - Mr. Music Country 04-07
DYEAR=2007
DGENRE=Country
TTITLE0=Red Jenkins with Bill Green - Honky Tonkin' 'Round
TTITLE1=Brad and Shelly - Mr. Right Now
TTITLE2=Jerry Burkhart - These Things I Want
TTITLE3=Leif Aase with Monty Holmes - It's All About Lovin' You
TTITLE4=Robin Right - Rose Café
TTITLE5=Laurie Lewis and The Right Hands - Bury Me In Bluegrass
TTITLE6=Sandi Kay - Eyes Of An Angel
TTITLE7=Ricky Ryan - You're Sure Got That Right
TTITLE8=Michelle Cupit - That Ole Fiddle On The Wall
TTITLE9=Bobby Seals - Who's Gonna Play Piano
TTITLE10=Alita Marie Davis - If Only I Could Turn Up The Clock
TTITLE11=Eugine Chrysler - From Me To You
TTITLE12=Jerry Lee Lewis with Ringo Starr - Sweet Little Sixteen
TTITLE13=George Jones - He Stopped Loving Her Today
EXTD=YEAR: 2007
EXTT0=
EXTT1=
EXTT2=
EXTT3=
EXTT4=
EXTT5=
EXTT6=
EXTT7=
EXTT8=
EXTT9=
EXTT10=
EXTT11=
EXTT12=
EXTT13=
PLAYORDER=
